<svg width="50" height="21" viewBox="0 0 50 21" fill="none" xmlns="http://www.w3.org/2000/svg">
<path d="M7.9049 3.89829C8.39934 3.03622 8.7269 1.88967 8.64656 0.734497C7.92344 0.786221 7.052 1.39829 6.53902 2.24312C6.08166 2.96726 5.67375 4.17415 5.79118 5.28622C6.59464 5.39829 7.40428 4.7345 7.9049 3.89829V3.89829ZM9.68488 11.2517C9.66633 8.74312 11.1558 7.56208 11.2238 7.4845C10.3894 5.75174 9.07919 5.55346 8.6342 5.51898C7.46609 5.42415 6.48339 6.44139 5.92097 6.44139C5.35855 6.44139 4.51182 5.5707 3.59093 5.57933C2.38574 5.60519 1.23617 6.56208 0.624307 8.0707C-0.636508 11.0879 0.333825 15.5707 1.55756 18.0104C2.15706 19.2259 2.86782 20.5793 3.80107 20.519C4.69106 20.4673 5.04334 19.7086 6.11256 19.7086C7.18179 19.7086 7.50317 20.519 8.4426 20.4931C9.41912 20.4673 10.0372 19.2776 10.6119 18.0621C11.2918 16.6742 11.5699 15.3552 11.5885 15.269C11.5699 15.2345 9.70342 14.2259 9.68488 11.2517V11.2517ZM30.0866 6.81208C27.738 6.81208 26.2671 8.55346 26.1558 10.95H27.9976C28.1707 9.76036 28.8814 9.0276 30.0063 9.0276C31.1991 9.0276 31.9222 9.91553 31.9222 11.3897V12.4242L29.314 12.6311C27.052 12.8035 25.7665 14.2431 25.7665 16.5621C25.7665 18.9586 27.0767 20.5707 28.9309 20.5707C30.1793 20.5707 31.3969 19.6311 31.9469 18.1483H32.0087V20.3466H33.8629V11.2C33.8691 8.5276 32.3981 6.81208 30.0866 6.81208V6.81208ZM31.9222 15.381C31.9222 17.1138 30.853 18.4242 29.4871 18.4242C28.4364 18.4242 27.7442 17.6742 27.7442 16.4931C27.7442 15.3552 28.4055 14.631 29.586 14.519L31.9284 14.3207V15.381H31.9222ZM48.0223 2.0707V9.26898H47.9976C47.4599 7.80346 46.3598 6.83795 44.9939 6.83795C42.6021 6.83795 41.0013 9.51036 41.0013 13.7C41.0013 17.8897 42.6021 20.5793 45.0124 20.5793C46.403 20.5793 47.4908 19.5966 48.0532 18.0793L48.0841 18.1138V20.3552H50.0001V2.0707H48.0223ZM45.5254 18.2604C43.9679 18.2604 43.0161 16.5017 43.0161 13.7C43.0161 10.9069 43.9927 9.13967 45.5254 9.13967C47.0335 9.13967 48.0285 10.95 48.0285 13.7C48.0347 16.4845 47.0335 18.2604 45.5254 18.2604ZM37.6762 9.3207H37.6391V6.9845H35.785V20.3466H37.7627V12.3897C37.7627 10.5017 38.492 9.33795 39.7529 9.33795C40.1299 9.33795 40.5131 9.40691 40.6676 9.4845V6.94139C40.5254 6.89829 40.2473 6.83795 39.963 6.83795C38.8443 6.83795 37.9914 7.76036 37.6762 9.3207V9.3207ZM19.2893 18.1828C16.8913 18.1828 15.3647 15.5017 15.3647 11.2259C15.3647 7.01036 16.9098 4.28622 19.277 4.28622C21.0569 4.28622 22.4414 5.86381 22.8122 8.19139H24.8208C24.4809 4.39829 22.2436 1.80346 19.277 1.80346C15.6243 1.80346 13.2943 5.44139 13.2943 11.2173C13.2943 17.0362 15.6058 20.6397 19.277 20.6397C22.2807 20.6397 24.3388 18.4069 24.8332 14.6569H22.8122C22.4043 16.8811 21.1187 18.1828 19.2893 18.1828V18.1828Z" fill="black"/>
</svg>
